<svg width="16" height="16" viewBox="0 0 16 16" fill="none" xmlns="http://www.w3.org/2000/svg">
<g id="Close / 24 / Outline">
<path id="Vector" d="M8.94001 7.99988L13.14 3.80655C13.2655 3.68101 13.3361 3.51075 13.3361 3.33321C13.3361 3.15568 13.2655 2.98542 13.14 2.85988C13.0145 2.73434 12.8442 2.66382 12.6667 2.66382C12.4891 2.66382 12.3189 2.73434 12.1933 2.85988L8.00001 7.05988L3.80668 2.85988C3.68114 2.73434 3.51088 2.66382 3.33334 2.66382C3.15581 2.66382 2.98555 2.73434 2.86001 2.85988C2.73447 2.98542 2.66395 3.15568 2.66395 3.33321C2.66395 3.51075 2.73447 3.68101 2.86001 3.80655L7.06001 7.99988L2.86001 12.1932C2.79752 12.2552 2.74793 12.3289 2.71408 12.4102C2.68024 12.4914 2.66281 12.5785 2.66281 12.6665C2.66281 12.7546 2.68024 12.8417 2.71408 12.9229C2.74793 13.0042 2.79752 13.0779 2.86001 13.1399C2.92199 13.2024 2.99572 13.252 3.07696 13.2858C3.1582 13.3197 3.24534 13.3371 3.33334 13.3371C3.42135 13.3371 3.50849 13.3197 3.58973 13.2858C3.67097 13.252 3.7447 13.2024 3.80668 13.1399L8.00001 8.93988L12.1933 13.1399C12.2553 13.2024 12.3291 13.252 12.4103 13.2858C12.4915 13.3197 12.5787 13.3371 12.6667 13.3371C12.7547 13.3371 12.8418 13.3197 12.9231 13.2858C13.0043 13.252 13.078 13.2024 13.14 13.1399C13.2025 13.0779 13.2521 13.0042 13.2859 12.9229C13.3198 12.8417 13.3372 12.7546 13.3372 12.6665C13.3372 12.5785 13.3198 12.4914 13.2859 12.4102C13.2521 12.3289 13.2025 12.2552 13.14 12.1932L8.94001 7.99988Z" fill="white"/>
</g>
</svg>
